<svg width="22" height="22" viewBox="0 0 22 22" fill="none" xmlns="http://www.w3.org/2000/svg">
<path d="M16.0991 0.920944L13.5533 0.916748C10.6931 0.916748 8.84478 2.86475 8.84478 5.87979V8.16809H6.28507C6.06388 8.16809 5.88477 8.35229 5.88477 8.57951V11.895C5.88477 12.1222 6.06409 12.3062 6.28507 12.3062H8.84478V20.6722C8.84478 20.8994 9.0239 21.0834 9.24509 21.0834H12.5848C12.806 21.0834 12.9851 20.8992 12.9851 20.6722V12.3062H15.978C16.1992 12.3062 16.3783 12.1222 16.3783 11.895L16.3795 8.57951C16.3795 8.47041 16.3372 8.36593 16.2623 8.28872C16.1873 8.21152 16.0852 8.16809 15.979 8.16809H12.9851V6.22827C12.9851 5.29592 13.2014 4.82261 14.3837 4.82261L16.0987 4.82198C16.3197 4.82198 16.4988 4.63777 16.4988 4.41077V1.33215C16.4988 1.10536 16.3199 0.921364 16.0991 0.920944Z" fill="#8E0038"/>
</svg>
