<svg width="94" height="32" viewBox="0 0 94 32" fill="none" xmlns="http://www.w3.org/2000/svg">
<path d="M15.1387 1.51822C13.3954 1.67533 11.3947 2.19963 9.37886 3.32396L3.2632 6.79916C2.68779 7.14554 2.35655 7.77395 2.36033 8.4459C2.41901 18.2771 0.393704 19.7687 3.05121 24.6124C3.58876 25.5947 3.62473 26.1304 3.39948 27.3948C3.31998 27.8415 2.81839 28.0705 2.42658 27.8453L0.749552 26.7834C0.285814 26.5146 0 26.0206 0 25.485V8.34558C0 7.41621 0.495916 6.55498 1.30225 6.09125L8.3416 2.04064C13.0149 -0.656613 19.0927 -0.204232 20.9193 0.708101C23.2323 1.86082 23.1566 3.48296 23.1566 4.58079L23.1471 21.6426C23.1452 23.6281 22.0872 25.4622 20.3666 26.4541L11.213 31.7388C10.6111 32.0871 9.8691 32.0871 9.26529 31.7388L7.02421 30.4498C6.67025 30.2454 6.49233 29.8271 6.604 29.4334C7.50687 26.244 9.22933 27.1885 10.6489 24.3587C11.9796 21.7069 11.0881 18.6425 10.4634 12.1861C10.3934 11.4611 10.7549 10.7589 11.3871 10.3955L18.9338 6.00607C20.3079 5.21298 20.9269 4.18897 20.6903 3.29557C20.6392 3.09872 20.5313 3.06465 20.272 3.20661L9.04951 9.60241C8.38135 9.97529 8.13339 10.2346 8.19396 11.3286C8.39839 14.9912 8.31132 17.8418 8.14286 20.8192L7.36491 20.4217C7.40466 17.6468 7.3422 14.2909 7.03367 10.6662C6.975 9.98475 7.3157 9.32984 7.90815 8.98914L19.3388 2.46463C20.0354 2.06335 19.3937 1.92518 18.9527 1.75672C18.7596 1.6829 18.5211 1.63368 18.2618 1.58447C17.993 1.53337 17.7754 1.54283 17.4782 1.72265L6.09484 8.0787C5.42668 8.45158 5.17683 8.65032 5.2374 9.74247C5.44182 13.4051 5.33772 16.2897 5.18251 19.3012L4.36671 18.9245C4.40646 16.1667 4.38942 12.8145 4.08279 9.20302C4.02222 8.48376 4.37996 7.79477 5.00458 7.43325L15.1046 1.81729C15.2579 1.72454 15.6838 1.46901 15.1387 1.51822Z" fill="#8E0038"/>
<path d="M38.8524 13.5634C38.7692 12.9652 38.5534 12.545 38.2032 12.3028C37.853 12.0624 37.3041 11.9412 36.5546 11.9412C35.9394 11.9412 35.4643 12.0207 35.1312 12.1778C34.7981 12.3368 34.6315 12.598 34.6315 12.9652C34.6315 13.3324 34.7981 13.6107 35.1312 13.8019C35.4643 13.993 35.9621 14.1804 36.6284 14.364C37.3287 14.5628 37.9931 14.7426 38.6253 14.9016C39.2575 15.0606 39.8159 15.2309 40.2985 15.4126C40.9478 15.6776 41.4475 16.041 41.7977 16.4972C42.1459 16.9553 42.322 17.5837 42.322 18.3825C42.322 19.6639 41.8677 20.6633 40.961 21.3788C40.0544 22.0942 38.7181 22.452 36.9521 22.452C35.0555 22.452 33.6018 22.0526 32.5948 21.2538C31.5879 20.4551 31.0692 19.4311 31.0352 18.1837H34.3816C34.3816 18.7667 34.6069 19.2153 35.0555 19.5314C35.5041 19.8494 36.1287 20.0065 36.9275 20.0065C37.5086 20.0065 38.0177 19.9118 38.4493 19.7188C38.8827 19.5276 39.0985 19.2001 39.0985 18.7326C39.0985 18.2992 38.9036 17.9925 38.5117 17.8089C38.1199 17.6253 37.6581 17.4682 37.1262 17.3338C36.0946 17.0859 35.2618 16.8606 34.6296 16.66C33.9974 16.4613 33.4655 16.2209 33.0321 15.9369C32.4491 15.5716 32.0459 15.1552 31.8207 14.6877C31.5954 14.2221 31.4838 13.7148 31.4838 13.1659C31.4838 12.651 31.5746 12.1665 31.7582 11.7179C31.9418 11.2693 32.2409 10.8813 32.6573 10.5576C33.0737 10.2339 33.6113 9.98028 34.2681 9.79667C34.9249 9.61307 35.7199 9.52222 36.653 9.52222C38.4341 9.52222 39.7458 9.86292 40.5863 10.5462C41.4267 11.2295 41.8885 12.2365 41.9718 13.5671H38.8524V13.5634Z" fill="#8E0038"/>
<path d="M51.5091 22.1287V14.5139C51.5091 13.5808 51.3464 12.9448 51.0227 12.6041C50.699 12.2634 50.1615 12.093 49.4119 12.093C49.0125 12.093 48.6548 12.1725 48.3387 12.3296C48.0207 12.4886 47.7557 12.7044 47.5399 12.9788C47.3241 13.2533 47.1614 13.5694 47.0535 13.929C46.9456 14.2868 46.8907 14.6748 46.8907 15.0893V22.1306H43.6445V5.35083H45.0831C46.0825 5.35083 46.8907 6.16095 46.8907 7.15846V11.4419C47.008 11.175 47.186 10.9214 47.4264 10.6791C47.6667 10.4368 47.9469 10.2343 48.263 10.0677C48.5791 9.90114 48.9292 9.76864 49.3116 9.66832C49.6939 9.56801 50.0933 9.51879 50.5097 9.51879C51.7741 9.51879 52.8038 9.86518 53.5931 10.5542C54.3824 11.245 54.778 12.2066 54.778 13.4388V22.1268H51.5091V22.1287Z" fill="#8E0038"/>
<path d="M64.5442 22.1281V20.4056C63.7114 21.7703 62.4394 22.4517 60.7226 22.4517C60.1075 22.4517 59.5453 22.3438 59.0381 22.1281C58.5308 21.9123 58.0935 21.6038 57.7282 21.2044C57.361 20.805 57.0752 20.3299 56.867 19.781C56.6588 19.2321 56.5547 18.6169 56.5547 17.9336V9.84375H57.9932C58.9926 9.84375 59.8009 10.6539 59.8009 11.6514V17.432C59.8009 18.9652 60.4898 19.7299 61.8735 19.7299C62.7044 19.7299 63.3328 19.4687 63.7587 18.9425C64.1846 18.4182 64.3966 17.7481 64.3966 16.9323V9.84375H65.8086C66.808 9.84375 67.6162 10.6539 67.6162 11.6514V22.1281H64.5442Z" fill="#8E0038"/>
<path d="M69.457 22.1287V5.35083H70.8445C71.8439 5.35083 72.6521 6.16095 72.6521 7.15846V11.4419C73.5682 10.1586 74.7834 9.51879 76.2976 9.51879C77.0964 9.51879 77.8081 9.67211 78.4327 9.98064C79.0574 10.2892 79.5855 10.7264 80.0189 11.2924C80.4524 11.8583 80.7798 12.5284 81.0051 13.3025C81.2303 14.0767 81.342 14.9303 81.342 15.8616C81.342 16.8932 81.2095 17.8169 80.9426 18.6327C80.6776 19.4485 80.3104 20.1393 79.8448 20.7053C79.3791 21.2712 78.817 21.7047 78.1602 22.0038C77.5034 22.3028 76.7917 22.4523 76.0251 22.4523C74.4919 22.4523 73.3524 21.8448 72.6048 20.6296L72.5802 22.1268H69.457V22.1287ZM75.2755 19.8062C76.0913 19.8062 76.7557 19.4617 77.2724 18.7708C77.7892 18.08 78.0466 17.1847 78.0466 16.0868C78.0466 13.5562 77.1153 12.2918 75.2509 12.2918C73.4357 12.2918 72.5291 13.6243 72.5291 16.2875C72.5291 17.3361 72.7903 18.186 73.3165 18.8333C73.8389 19.4825 74.4919 19.8062 75.2755 19.8062Z" fill="#8E0038"/>
<path d="M90.3267 22.1289C90.2263 21.8128 90.1601 21.4456 90.126 21.031C89.7437 21.4645 89.2345 21.809 88.6042 22.0664C87.972 22.3257 87.2395 22.4525 86.4067 22.4525C84.9927 22.4525 83.9555 22.1402 83.2987 21.5156C82.64 20.891 82.3125 20.0809 82.3125 19.0815C82.3125 18.1994 82.4545 17.4953 82.7365 16.971C83.0204 16.4467 83.4103 16.034 83.91 15.735C84.4097 15.4359 85.0041 15.2144 85.695 15.0725C86.3858 14.9324 87.1392 14.8018 87.955 14.6863C88.7708 14.5709 89.3197 14.4157 89.6036 14.2245C89.8856 14.0333 90.0276 13.721 90.0276 13.2876C90.0276 12.8882 89.8402 12.5759 89.4654 12.3506C89.0907 12.1254 88.5872 12.0137 87.955 12.0137C87.2054 12.0137 86.6698 12.1803 86.3442 12.5134C86.0186 12.8465 85.8161 13.2876 85.7328 13.8365H82.7119C82.7289 13.2043 82.833 12.6213 83.0242 12.0894C83.2154 11.5575 83.5239 11.0995 83.9479 10.7152C84.3719 10.3329 84.9246 10.0376 85.6079 9.8294C86.2912 9.62119 87.1221 9.51709 88.1045 9.51709C89.0698 9.51709 89.8894 9.62498 90.5633 9.84076C91.2371 10.0565 91.7785 10.3689 92.1854 10.7777C92.5924 11.1865 92.8876 11.6938 93.0731 12.2995C93.2567 12.9071 93.3476 13.5942 93.3476 14.3589V22.1232H90.3267V22.1289ZM90.1014 16.1097C89.9349 16.2763 89.6926 16.4107 89.3765 16.5091C89.0604 16.6094 88.6023 16.7173 88.0042 16.8328C87.071 17.0164 86.4313 17.2492 86.0811 17.5331C85.7309 17.8152 85.5568 18.2221 85.5568 18.7559C85.5568 19.672 86.0811 20.1301 87.1297 20.1301C87.5461 20.1301 87.9342 20.06 88.29 19.9181C88.6477 19.778 88.9563 19.5868 89.2137 19.3446C89.473 19.1023 89.6793 18.8202 89.8383 18.4947C89.9973 18.171 90.0768 17.8246 90.0768 17.4593L90.1014 16.1097Z" fill="#8E0038"/>
</svg>
