<svg width="24" height="24" viewBox="0 0 24 24" fill="none" xmlns="http://www.w3.org/2000/svg">
<path d="M22.1696 10.0873L13.196 10.0869C12.7997 10.0869 12.4785 10.4081 12.4785 10.8043V13.671C12.4785 14.0672 12.7997 14.3884 13.1959 14.3884H18.2493C17.696 15.8244 16.6632 17.0271 15.3455 17.7913L17.5002 21.5213C20.9567 19.5223 23.0002 16.0148 23.0002 12.0884C23.0002 11.5293 22.959 11.1297 22.8766 10.6797C22.814 10.3378 22.5171 10.0873 22.1696 10.0873Z" fill="#167EE6"/>
<path d="M11.9999 18.6956C9.52689 18.6956 7.36797 17.3444 6.20846 15.345L2.47852 17.4949C4.37666 20.7846 7.9325 23 11.9999 23C13.9953 23 15.878 22.4627 17.4999 21.5265V21.5214L15.3452 17.7913C14.3595 18.3629 13.219 18.6956 11.9999 18.6956Z" fill="#12B347"/>
<path d="M17.5 21.5265V21.5214L15.3452 17.7913C14.3596 18.3629 13.2192 18.6956 12 18.6956V23C13.9953 23 15.8782 22.4627 17.5 21.5265Z" fill="#0F993E"/>
<path d="M5.30435 12C5.30435 10.781 5.63702 9.6406 6.20854 8.65502L2.4786 6.50513C1.5372 8.12191 1 9.99956 1 12C1 14.0005 1.5372 15.8781 2.4786 17.4949L6.20854 15.345C5.63702 14.3594 5.30435 13.219 5.30435 12Z" fill="#FFD500"/>
<path d="M11.9999 5.30435C13.6126 5.30435 15.0939 5.87738 16.2509 6.83056C16.5363 7.06568 16.9512 7.04871 17.2127 6.78725L19.2438 4.75611C19.5405 4.45946 19.5193 3.97387 19.2024 3.69895C17.2639 2.0172 14.7416 1 11.9999 1C7.9325 1 4.37666 3.21534 2.47852 6.50511L6.20846 8.65501C7.36797 6.65555 9.5269 5.30435 11.9999 5.30435Z" fill="#FF4B26"/>
<path d="M16.251 6.83056C16.5364 7.06568 16.9513 7.04871 17.2128 6.78725L19.2439 4.75611C19.5405 4.45946 19.5194 3.97387 19.2025 3.69895C17.264 2.01716 14.7417 1 12 1V5.30435C13.6126 5.30435 15.094 5.87738 16.251 6.83056Z" fill="#D93F21"/>
</svg>
