<svg width="22" height="21" viewBox="0 0 22 21" fill="none" xmlns="http://www.w3.org/2000/svg">
<path d="M10.0826 1.11573C10.4307 0.312852 11.5693 0.312853 11.9175 1.11573L13.9247 5.74463C14.2145 6.41294 14.8448 6.87083 15.5699 6.93993L20.5925 7.41853C21.4637 7.50155 21.8156 8.58442 21.1596 9.16364L17.3775 12.5031C16.8314 12.9852 16.5907 13.7261 16.7491 14.4371L17.846 19.3618C18.0362 20.216 17.1151 20.8852 16.3615 20.4403L12.0168 17.8753C11.3895 17.505 10.6105 17.505 9.98324 17.8753L5.63854 20.4403C4.88495 20.8852 3.96381 20.216 4.15407 19.3618L5.25097 14.4371C5.40933 13.7261 5.1686 12.9852 4.62256 12.5031L0.840487 9.16363C0.184489 8.58441 0.536336 7.50155 1.40751 7.41853L6.43013 6.93993C7.15528 6.87083 7.78552 6.41294 8.07532 5.74463L10.0826 1.11573Z" fill="#8E0038"/>
</svg>
