<svg width="24" height="32" viewBox="0 0 24 32" fill="none" xmlns="http://www.w3.org/2000/svg">
<path d="M15.1387 1.51822C13.3954 1.67533 11.3947 2.19963 9.37886 3.32396L3.2632 6.79916C2.68779 7.14554 2.35655 7.77395 2.36033 8.4459C2.41901 18.2771 0.393704 19.7687 3.05121 24.6124C3.58876 25.5947 3.62473 26.1304 3.39948 27.3948C3.31998 27.8415 2.81839 28.0705 2.42658 27.8453L0.749552 26.7834C0.285814 26.5146 0 26.0206 0 25.485V8.34558C0 7.41621 0.495916 6.55498 1.30225 6.09125L8.3416 2.04064C13.0149 -0.656613 19.0928 -0.204232 20.9193 0.708101C23.2323 1.86082 23.1566 3.48296 23.1566 4.58079L23.1471 21.6426C23.1453 23.6281 22.0872 25.4622 20.3666 26.4541L11.213 31.7388C10.6111 32.0871 9.8691 32.0871 9.2653 31.7388L7.02421 30.4498C6.67026 30.2454 6.49233 29.8271 6.60401 29.4334C7.50688 26.244 9.22933 27.1885 10.6489 24.3587C11.9796 21.7069 11.0881 18.6425 10.4634 12.1861C10.3934 11.4611 10.7549 10.7589 11.3871 10.3955L18.9338 6.00607C20.3079 5.21298 20.9269 4.18897 20.6903 3.29557C20.6392 3.09872 20.5313 3.06465 20.272 3.20661L9.04951 9.60241C8.38135 9.97529 8.1334 10.2346 8.19397 11.3286C8.39839 14.9912 8.31132 17.8418 8.14286 20.8192L7.36492 20.4217C7.40466 17.6468 7.3422 14.2909 7.03367 10.6662C6.975 9.98475 7.3157 9.32984 7.90815 8.98914L19.3388 2.46463C20.0354 2.06335 19.3937 1.92518 18.9527 1.75672C18.7596 1.6829 18.5211 1.63368 18.2618 1.58447C17.993 1.53337 17.7754 1.54283 17.4782 1.72265L6.09484 8.0787C5.42668 8.45158 5.17683 8.65032 5.2374 9.74247C5.44182 13.4051 5.33772 16.2897 5.18251 19.3012L4.36671 18.9245C4.40646 16.1667 4.38942 12.8145 4.08279 9.20302C4.02222 8.48376 4.37996 7.79477 5.00458 7.43325L15.1046 1.81729C15.2579 1.72454 15.6838 1.46901 15.1387 1.51822Z" fill="#8E0038"/>
</svg>
