<svg width="38" height="14" viewBox="0 0 38 14" fill="none" xmlns="http://www.w3.org/2000/svg">
<path d="M0.404 4.594H2.312V13H0.404V4.594ZM0.278 2.956V0.778H2.42V2.956H0.278ZM11.4869 0.957999H13.3949V13H11.4869V12.226C10.8509 12.898 9.96894 13.234 8.84094 13.234C7.53294 13.234 6.48894 12.802 5.70894 11.938C4.94094 11.062 4.55694 10.018 4.55694 8.806C4.55694 7.582 4.94094 6.538 5.70894 5.674C6.48894 4.798 7.53294 4.36 8.84094 4.36C9.96894 4.36 10.8509 4.696 11.4869 5.368V0.957999ZM10.7849 10.786C11.3009 10.318 11.5589 9.658 11.5589 8.806C11.5589 7.954 11.3009 7.294 10.7849 6.826C10.2809 6.358 9.67494 6.124 8.96694 6.124C8.23494 6.124 7.63494 6.388 7.16694 6.916C6.69894 7.432 6.46494 8.062 6.46494 8.806C6.46494 9.538 6.69894 10.168 7.16694 10.696C7.63494 11.212 8.23494 11.47 8.96694 11.47C9.67494 11.47 10.2809 11.242 10.7849 10.786ZM20.0956 11.47C21.0076 11.47 21.6676 11.164 22.0756 10.552H24.1456C23.8336 11.38 23.3116 12.034 22.5796 12.514C21.8476 12.994 21.0196 13.234 20.0956 13.234C18.8116 13.234 17.7436 12.814 16.8916 11.974C16.0396 11.134 15.6136 10.072 15.6136 8.788C15.6136 7.528 16.0276 6.478 16.8556 5.638C17.6836 4.786 18.7336 4.36 20.0056 4.36C21.2416 4.36 22.2616 4.78 23.0656 5.62C23.8696 6.448 24.2716 7.48 24.2716 8.716C24.2716 9.1 24.2596 9.352 24.2356 9.472H17.5936C17.7016 10.072 17.9836 10.558 18.4396 10.93C18.9076 11.29 19.4596 11.47 20.0956 11.47ZM20.0056 6.07C19.3816 6.07 18.8476 6.244 18.4036 6.592C17.9716 6.928 17.7136 7.378 17.6296 7.942H22.2556C22.1596 7.366 21.9076 6.91 21.4996 6.574C21.1036 6.238 20.6056 6.07 20.0056 6.07ZM26.5251 4.594H28.4331V13H26.5251V4.594ZM26.3991 2.956V0.778H28.5411V2.956H26.3991ZM31.2 0.957999H33.108V13H31.2V0.957999ZM35.7687 12.028C35.7687 11.584 35.8767 11.272 36.0927 11.092C36.3087 10.912 36.5667 10.822 36.8667 10.822C37.1787 10.822 37.4427 10.912 37.6587 11.092C37.8867 11.272 38.0007 11.584 38.0007 12.028C38.0007 12.46 37.8867 12.772 37.6587 12.964C37.4427 13.156 37.1787 13.252 36.8667 13.252C36.5667 13.252 36.3087 13.156 36.0927 12.964C35.8767 12.772 35.7687 12.46 35.7687 12.028Z" fill="#2A1A1A"/>
</svg>
