<svg width="22" height="22" viewBox="0 0 22 22" fill="none" xmlns="http://www.w3.org/2000/svg">
<path d="M16.0991 0.920822L13.5533 0.916626C10.6931 0.916626 8.84478 2.86462 8.84478 5.87967V8.16796H6.28507C6.06388 8.16796 5.88477 8.35217 5.88477 8.57938V11.8949C5.88477 12.1221 6.06409 12.3061 6.28507 12.3061H8.84478V20.6721C8.84478 20.8993 9.0239 21.0833 9.24509 21.0833H12.5848C12.806 21.0833 12.9851 20.8991 12.9851 20.6721V12.3061H15.978C16.1992 12.3061 16.3783 12.1221 16.3783 11.8949L16.3795 8.57938C16.3795 8.47029 16.3372 8.36581 16.2623 8.2886C16.1873 8.21139 16.0852 8.16796 15.979 8.16796H12.9851V6.22815C12.9851 5.29579 13.2014 4.82248 14.3837 4.82248L16.0987 4.82186C16.3197 4.82186 16.4988 4.63765 16.4988 4.41065V1.33203C16.4988 1.10524 16.3199 0.921242 16.0991 0.920822Z" fill="#8E0038"/>
</svg>
